<?xml version="1.0" encoding="UTF-8" standalone="no"?>
<svg
   id="eb1b09ad-1fe0-40ca-8096-34696e14e30a"
   data-name="Layer 1"
   width="1010.89168"
   height="727.28412"
   viewBox="0 0 1010.89168 727.28412"
   version="1.1"
   sodipodi:docname="login.svg"
   inkscape:version="1.2.2 (732a01da63, 2022-12-09)"
   xmlns:inkscape="http://www.inkscape.org/namespaces/inkscape"
   xmlns:sodipodi="http://sodipodi.sourceforge.net/DTD/sodipodi-0.dtd"
   xmlns="http://www.w3.org/2000/svg"
   xmlns:svg="http://www.w3.org/2000/svg"
   xmlns:rdf="http://www.w3.org/1999/02/22-rdf-syntax-ns#"
   xmlns:cc="http://creativecommons.org/ns#"
   xmlns:dc="http://purl.org/dc/elements/1.1/">
  <defs
     id="defs127" />
  <sodipodi:namedview
     id="namedview125"
     pagecolor="#ffffff"
     bordercolor="#000000"
     borderopacity="0.25"
     inkscape:showpageshadow="2"
     inkscape:pageopacity="0.0"
     inkscape:pagecheckerboard="0"
     inkscape:deskcolor="#d1d1d1"
     showgrid="false"
     inkscape:zoom="1.1879814"
     inkscape:cx="698.24326"
     inkscape:cy="295.88006"
     inkscape:window-width="1920"
     inkscape:window-height="1051"
     inkscape:window-x="-9"
     inkscape:window-y="-9"
     inkscape:window-maximized="1"
     inkscape:current-layer="eb1b09ad-1fe0-40ca-8096-34696e14e30a" />
  <title
     id="title2">unlock</title>
  <path
     d="m 1105.4458,813.64206 c -52.0884,-7.6291 -102.1822,-14.20577 -150.28142,-19.73 l 19.01951,-30.77769 c -6.41163,-1.89409 -34.58476,15.65146 -34.58476,15.65146 l 24.9672,-89.4801 c 23.10686,40.3078 -48.65763,94.51337 -48.65763,94.51337 L 879.884,752.72283 897.32185,787.5765 C 750.10955,772.38127 622.97115,766.41158 516.03218,765.72302 L 532.311,739.38054 c -6.41164,-1.8941 -34.58476,15.65146 -34.58476,15.65146 l 19.31264,-93.0514 c 21.91641,27.21301 -43.00307,98.08467 -43.00307,98.08467 l -40.19126,-36.75083 18.46945,36.91575 c -89.651,1.08665 -158.59417,11.52627 -215.02436,17.1057 16.46742,-41.07795 53.03308,-87.53602 53.03308,-87.53602 21.68724,37.37266 -45.75143,35.72758 -57.45943,52.28599 -0.89495,-50.81752 -89.57286,-141.63279 -44.84298,-245.72747 0,0 6.40291,157.04163 17.6506,265.0408 l 1.34441,19.17452 c -74.83623,8.62484 -112.4612,17.78422 -112.4612,17.78422 z"
     transform="translate(-94.55416,-86.35794)"
     fill="#3f3d56"
     id="path4"
     sodipodi:nodetypes="ccccccccccccccccccccccc" />
  <path
     d="M329.85451,656.77957l1.27021,1.92364c3.88265-2.56378,7.73865-5.29636,11.43808-8.112l-1.39026-1.83593C337.50854,651.54757,333.69978,654.249,329.85451,656.77957Z"
     transform="translate(-94.55416 -86.35794)"
     fill="#e6e6e6"
     id="path56" />
  <path
     d="M319.16062,666.00791c-2.78,1.57-5.62,3.09-8.49,4.53v-2.58c2.48-1.26,4.94-2.59,7.35-3.94Z"
     transform="translate(-94.55416 -86.35794)"
     fill="#e6e6e6"
     id="path58" />
  <path
     d="M484.72385,792.35794s-13-32,26-56Z"
     transform="translate(-94.55416 -86.35794)"
     fill="#f2f2f2"
     id="path76" />
  <path
     d="M468.73587,791.77747s-5.91642-34.02934-51.7085-33.73768Z"
     transform="translate(-94.55416 -86.35794)"
     fill="#f2f2f2"
     id="path78" />
  <path
     d="m 568.10729,37.30006 c 0,0 -28.84939,-23.11975 -58.84166,14.56288 -29.99227,37.68263 -57.55878,70.72226 -68.32525,85.33389 0,0 31.80677,-29.91473 47.18744,-37.60506 15.38067,-7.69033 14.61163,-6.15227 14.61163,-6.15227 0,0 -15.55575,17.43891 -19.40092,32.05055 -3.84517,14.61164 -5.97715,24.08888 -12.89848,38.70052 -6.92133,14.61164 132.27379,9.99749 132.27379,9.99749 0,0 13.8426,-23.84 9.99743,-48.4491 -3.84517,-24.6091 -1.53811,-85.36274 -44.60398,-88.4389 z"
     fill="#2f2e41"
     id="path88"
     style="opacity:1;fill:#00e9ff;fill-opacity:1"
     sodipodi:nodetypes="cscscsscsc" />
  <path
     d="m 525.92462,100.20211 c 0,0 4.84954,33.94676 -15.93419,41.56746 -20.78373,7.6207 -13.163,18.01256 -13.163,18.01256 l 31.1756,15.2414 33.254,-10.39186 11.08466,-16.627 c 0,0 -18.01257,-4.15674 -13.163,-16.627 4.84957,-12.47026 6.23512,-16.627 6.23512,-16.627 z"
     fill="#ffb9b9"
     id="path90"
     style="fill:#1a1a1a" />
  <path
     d="m 613.21629,197.19284 c 0,0 -4.84954,63.73677 -3.464,66.50794 1.38554,2.77117 0,99.06911 0,99.06911 0,0 9.69907,51.95932 -2.77116,54.73048 -12.47023,2.77116 -9.69908,-58.19444 -9.69908,-58.19444 l -12.47021,-80.36375 1.38558,-79.671 z"
     fill="#ffb9b9"
     id="path94"
     style="fill:#1a1a1a" />
  <path
     d="m 478.12205,389.09594 c 0,0 -22.86211,86.59888 -22.16932,128.85912 0.69279,42.26024 9.69911,101.14749 9.69911,101.14749 0,0 1.38558,25.63326 -0.69279,28.40443 -2.07837,2.77117 10.39179,14.54861 10.39179,14.54861 l 13.163,-7.6207 4.84954,-5.54233 v -4.8495 c 0,0 -7.6207,-23.55489 -1.38558,-42.26025 6.23512,-18.70536 9.69907,-65.81514 3.464,-80.36375 l 42.953,-127.47354 z"
     fill="#ffb9b9"
     id="path98"
     style="fill:#1a1a1a" />
  <path
     d="m 476.73646,650.97093 c 0,0 -8.31349,-10.39187 -13.85582,-6.92787 -5.54233,3.464 -14.54861,27.01885 -14.54861,27.01885 0,0 -31.17559,29.79 -9.00628,31.17559 22.16931,1.38559 31.86839,-6.23511 34.63955,-11.77744 2.77116,-5.54233 28.40443,-20.091 28.40443,-20.091 0,0 -2.77116,-26.32606 -6.92791,-27.01885 -4.15675,-0.69279 -10.39186,10.39185 -10.39186,10.39185 z"
     fill="#2f2e41"
     id="path100"
     style="fill:#333333" />
  <path
     d="m 553.63626,394.63827 v 85.90608 a 265.61649,265.61649 0 0 0 2.07837,31.1756 c 2.07838,15.2414 -11.77744,128.85912 -11.77744,128.85912 l 1.38558,20.09094 17.31977,-1.38559 2.07838,-17.31977 24.94047,-76.207 c 0,0 8.31349,-46.417 4.15675,-63.73677 -4.15674,-17.31977 21.47652,-128.16633 21.47652,-128.16633 z"
     fill="#ffb9b9"
     id="path102"
     style="fill:#1a1a1a" />
  <path
     d="m 539.78044,655.82047 5.13095,-1.1155 c 0,0 3.87534,-8.58357 8.72487,-6.5052 a 52.29963,52.29963 0 0 1 9.64308,5.778 l 2.13437,3.921 c 0,0 4.84954,10.39187 11.08465,17.31978 6.23511,6.92791 13.163,22.16931 2.77117,23.55489 -10.39183,1.38558 -24.24769,2.07837 -28.40443,-1.38558 -4.15674,-3.46395 -1.38558,-9.00628 -5.54233,-10.39187 -4.15675,-1.38559 -7.6207,-5.54232 -6.92791,-6.92791 0.69279,-1.38559 1.38558,-24.24761 1.38558,-24.24761 z"
     fill="#2f2e41"
     id="path104"
     style="fill:#333333" />
  <ellipse
     cx="552.14819"
     cy="96.324692"
     fill="#ffb9b9"
     id="circle106"
     style="fill:#333333;stroke-width:1.02186"
     rx="30.790199"
     ry="33.394272" />
  <path
     d="m 495.44184,147.31189 9.15108,-3.19485 c 0,0 -3.60875,5.966 15.7894,9.43 19.39815,3.464 39.48715,4.69031 48.4944,-6.66113 0,0 9.8635,1.32373 14.71304,6.17327 4.84954,4.84954 1.22212,0.48791 1.22212,0.48791 l -3.464,18.01257 -6.92791,33.254 -9.00626,24.9404 -25.63327,-5.54233 -27.7116,-20.09098 -10.3919,-27.01884 v -24.94048 z"
     fill="#1266f1"
     id="path108"
     style="fill:#000000"
     sodipodi:nodetypes="ccscsccccccccc" />
  <path
     d="m 579.96232,157.01097 6.92791,-4.84954 c 0,0 23.55489,4.15675 24.94047,15.2414 l -18.01256,34.63955 a 39.43662,39.43662 0 0 1 -0.69279,29.79 c -6.92791,15.9342 -6.23512,19.39815 -6.23512,19.39815 l -4.84954,20.78373 -87.98445,6.92791 c 0,0 -3.464,-8.31349 -4.84954,-9.69907 -1.38554,-1.38558 -1.38558,-6.23512 0,-6.23512 1.38558,0 0,-2.07838 -1.38558,-4.15675 -1.38558,-2.07837 -2.07837,-2.77116 0,-5.54233 2.07837,-2.77117 -3.464,-27.71164 -3.464,-27.71164 v -27.01883 l -23.55489,-31.1756 c 0,0 8.31349,-12.47024 12.47024,-13.85582 4.15675,-1.38558 23.93018,-6.84988 23.93018,-6.84988 l 4.47425,6.588 6.23512,50.14279 9.00628,30.48281 37.921,-6.4431 14.73113,-24.7325 9.69908,-29.09722 z"
     fill="#1266f1"
     id="path110"
     style="fill:#000000" />
  <path
     d="m 606.28838,163.24606 5.54232,4.15674 c 0,0 4.84954,38.7963 3.464,41.56746 -1.38554,2.77116 -25.63327,5.54233 -26.32606,4.15675 -0.69279,-1.38558 17.31974,-49.88095 17.31974,-49.88095 z"
     fill="#1266f1"
     id="path112"
     style="fill:#000000" />
  <path
     d="m 492.57306,148.60968 6.33268,40.96246 c 0,0 -6.23511,67.89352 -4.84953,81.74934 l 1.38558,4.15674 c 0,0 -2.77116,-1.38558 -3.464,1.38559 -0.69284,2.77117 0,11.77744 0,11.77744 0,0 -4.15675,4.15675 -5.54233,27.01885 -1.38558,22.8621 -18.01257,77.59259 -11.77745,79.671 6.23512,2.07841 43.64583,12.47024 63.73677,10.39187 20.09094,-2.07837 92.1412,-26.32606 91.44841,-32.56118 -0.69279,-6.23512 -35.33234,-94.21957 -35.33234,-94.21957 0,0 -6.23501,-10.39191 -6.23501,-11.77749 0,-1.38558 8.31349,-6.92791 6.23512,-12.47024 -2.07837,-5.54233 -13.163,-63.73676 -13.163,-63.73676 l 7.32309,-36.80572 c -3.36477,-2.51099 10.25885,0.95752 -11.43355,-4.70567 l -6.28146,37.3546 c 0,0 -29.79,14.54861 -60.96561,1.38558 l -6.33269,-41.90164 z"
     fill="#2f2e41"
     id="path114"
     style="fill:#000000;fill-opacity:1"
     sodipodi:nodetypes="ccccscsssscssccccccc" />
  <path
     d="m 525.3102,71.17698 c 0,0 51.26654,35.33234 65.12236,19.39814 13.85582,-15.9342 -24.24769,-29.79 -24.24769,-29.79 l -31.86838,-3.46395 z"
     fill="#2f2e41"
     id="path116"
     style="fill:#00e9ff;fill-opacity:1" />
  <path
     d="m 455.95273,205.50634 c 0,0 4.84954,63.73677 3.464,66.50793 -1.38554,2.77116 0,99.06911 0,99.06911 0,0 -9.69907,51.95932 2.77116,54.73049 12.47023,2.77117 9.69908,-58.19445 9.69908,-58.19445 l 12.47023,-80.36375 -1.38558,-79.671 z"
     fill="#ffb9b9"
     id="path120"
     style="fill:#1a1a1a" />
  <path
     d="m 466.3446,165.32446 -5.54233,2.07837 c 0,0 -10.39186,43.64583 -7.6207,43.64583 2.77116,0 36.02513,4.15675 36.02513,2.77117 0,-1.38558 -6.23512,-35.33234 -6.23512,-35.33234 z"
     fill="#1266f1"
     id="path122"
     style="fill:#000000" />
  <path
     style="opacity:1;fill:#1a1a1a;fill-opacity:1"
     d="m 550.39863,125.36405 3.12489,4.01771"
     id="path5479" />
  <metadata
     id="metadata5869">
    <rdf:RDF>
      <cc:Work
         rdf:about="">
        <dc:title>unlock</dc:title>
      </cc:Work>
    </rdf:RDF>
  </metadata>
</svg>
